<svg width="60" height="70" viewBox="0 0 82 95" fill="none" xmlns="http://www.w3.org/2000/svg">
<path d="M40.4342 0.541874C38.854 0.662647 37.3393 1.15077 36.0813 1.93077C35.2409 2.45412 34.3099 3.27437 33.701 4.02921C32.8456 5.08597 32.2165 6.35409 31.8794 7.70273C31.6076 8.77963 31.6026 8.86518 31.6026 15.4826V21.5917H32.1561H32.7047L32.7248 15.3366C32.7399 9.15704 32.7449 9.08156 32.8506 8.51292C33.1978 6.71641 34.003 5.23191 35.3365 3.94869C36.4889 2.8416 37.9784 2.08174 39.5787 1.78483C40.2882 1.64896 41.8432 1.64896 42.5477 1.78483C44.4297 2.13206 46.2464 3.17876 47.434 4.59282C48.6216 6.00687 49.2657 7.57189 49.4167 9.38349C49.4469 9.78607 49.467 12.2368 49.467 15.8096V21.5917H50.0205H50.5791L50.559 15.2108C50.5439 9.01614 50.5389 8.81989 50.4382 8.33176C49.9249 5.84081 48.6669 3.82792 46.7244 2.39373C44.933 1.07026 42.5678 0.370777 40.4342 0.541874Z" fill="#F24240"/>
<path d="M25.4732 16.0111C25.2518 16.1218 25.0907 16.308 25.0102 16.5445C24.9851 16.62 24.8492 18.1095 24.7083 19.8557C24.3611 24.2287 23.7673 31.6814 23.3496 36.9401C23.1533 39.3606 22.8413 43.326 22.6451 45.7465C22.4539 48.167 22.2123 51.1964 22.1117 52.4746C21.9255 54.7794 21.9255 54.7995 22.0161 55.0058C22.1268 55.2524 22.3381 55.4235 22.6199 55.504C22.7709 55.5493 27.5515 55.5594 41.1888 55.5493L59.5565 55.5342L59.7779 55.4084C59.9389 55.3178 60.0396 55.2121 60.1251 55.0461L60.2459 54.8096L59.8131 49.6364C59.4055 44.7854 59.1489 41.766 58.852 38.2485C58.5098 34.2127 58.3487 32.3004 58.0216 28.4357C56.9749 15.9557 57.0353 16.6452 56.9196 16.4237C56.8642 16.308 56.7334 16.152 56.6277 16.0715L56.4465 15.9306L53.6587 15.9155L50.8759 15.9054V17.7975V19.6947L51.1476 19.9513C51.4646 20.2583 51.6055 20.5099 51.676 20.9175C51.8068 21.6472 51.4143 22.402 50.7299 22.7341C50.4934 22.8499 50.3777 22.87 50.0204 22.875C49.6581 22.875 49.5474 22.8549 49.3108 22.7442C48.9485 22.5731 48.6365 22.2611 48.4654 21.8988C48.3547 21.6623 48.3346 21.5465 48.3346 21.1893C48.3346 20.8219 48.3547 20.7213 48.4755 20.4797C48.551 20.3237 48.7271 20.0922 48.863 19.9614L49.1146 19.7249V17.8177V15.9054H41.0882H33.0618V17.8227V19.74L33.3084 19.9614C33.6858 20.2985 33.8368 20.6508 33.8418 21.1893C33.8418 21.5566 33.8217 21.6572 33.7009 21.9038C33.5248 22.2661 33.2128 22.5781 32.8605 22.7442C32.629 22.8549 32.5133 22.875 32.156 22.875C31.6377 22.87 31.371 22.7643 31.0086 22.4272C30.6463 22.09 30.4752 21.6824 30.4752 21.1792C30.4752 20.8471 30.5004 20.7464 30.6413 20.4646C30.747 20.2482 30.8879 20.057 31.0539 19.9211L31.3005 19.7047V17.8026V15.9054H28.4976C25.7449 15.9054 25.6845 15.9054 25.4732 16.0111ZM49.965 28.2092C50.5337 28.5011 50.6293 29.3616 50.1512 29.8849C49.9751 30.0812 49.7939 30.1466 49.4417 30.1466C49.0693 30.1466 48.9133 30.0812 48.6818 29.8346C48.4604 29.6031 48.4101 29.4874 48.4101 29.2157C48.4101 28.652 48.6466 28.2545 49.0492 28.1438C49.2907 28.0733 49.7738 28.1086 49.965 28.2092ZM41.9235 29.1955C42.5576 29.2559 43.0659 29.3566 43.6043 29.5277C45.3907 30.0913 46.9457 31.5556 47.7911 33.4779C48.2742 34.58 48.4352 35.4908 48.395 36.8646C48.3497 38.2535 48.0981 39.2902 47.5496 40.362C47.2074 41.0313 46.4978 41.9422 45.9594 42.4001C45.0133 43.2103 43.8106 43.794 42.6582 44.0154C42.1701 44.106 38.0638 44.2067 37.0272 44.1563L36.3831 44.1211V39.5267C36.3831 35.0732 36.3881 34.9272 36.4787 34.9272C36.529 34.9272 36.6246 34.9725 36.6951 35.0228C36.8259 35.1285 36.8963 35.2694 37.5405 36.764C38.406 38.7668 38.9042 39.8286 39.2313 40.3721C39.3772 40.6086 39.4578 40.6841 39.6943 40.7948C40.1069 40.9911 40.6403 41.0213 41.0026 40.8653C41.5059 40.6489 41.5813 40.518 42.769 37.8912C44.2333 34.6555 44.0824 34.9574 44.2484 34.9373L44.3843 34.9222L44.3893 37.3276C44.3944 38.6511 44.4095 39.9796 44.4296 40.2865L44.4598 40.8401H45.431C46.2362 40.8401 46.4073 40.825 46.4525 40.7646C46.4878 40.7143 46.4928 39.6475 46.4777 37.6195C46.4525 34.3586 46.4425 34.1472 46.2009 33.5081C45.9845 32.9395 45.4411 32.5168 44.7315 32.3608C44.0824 32.2199 43.549 32.3809 43.0759 32.864C42.6834 33.2666 42.4972 33.6289 41.4606 35.9991L40.5397 38.1026L40.3887 38.0875C40.2377 38.0724 40.2226 38.0472 39.3923 36.1098C38.9294 35.0279 38.4463 33.9409 38.3205 33.6843C37.6965 32.4212 36.7051 32.0136 35.5427 32.5571C35.1602 32.7382 34.8331 33.0552 34.652 33.4276C34.3802 33.9862 34.3752 34.0818 34.3702 39.3103V44.1211L33.882 44.1513C33.3839 44.1865 32.9008 44.1362 32.7146 44.0356C32.6542 44.0054 32.5686 43.9098 32.5233 43.8192C32.4378 43.6682 32.4328 43.2304 32.4177 36.7388C32.4076 32.0941 32.4177 29.7591 32.4529 29.6384C32.5334 29.3666 32.7095 29.2358 33.0467 29.1905C33.5147 29.1301 41.3297 29.1351 41.9235 29.1955Z" fill="#F24240"/>
<path d="M16.6365 57.8538C15.781 58.0602 15.1117 58.7295 14.6588 59.8365C14.377 60.531 11.0155 70.7011 11.0306 70.8169L11.0457 70.9326L12.5654 70.9477L14.0902 70.9578L14.1153 70.8219C14.1355 70.7414 14.2663 70.3036 14.4072 69.8356L14.6689 68.9952H17.3611H20.0584L20.3452 69.8708C20.5012 70.3539 20.6321 70.7967 20.6321 70.8521C20.6321 70.9578 20.6522 70.9578 22.1065 70.9578C23.0928 70.9578 23.6011 70.9376 23.6363 70.9024C23.6665 70.8722 23.6766 70.7867 23.6514 70.686C23.6313 70.5954 22.816 68.1498 21.8448 65.2412C20.6673 61.7387 19.9879 59.7913 19.8269 59.4591C19.4042 58.5735 18.7903 58.035 18.0103 57.8488C17.6127 57.7582 17.029 57.7582 16.6365 57.8538ZM17.5473 61.3563C17.6127 61.4318 17.9096 62.2822 18.3575 63.7114C18.75 64.9392 19.062 65.9557 19.0519 65.9608C19.0419 65.9708 18.277 65.9708 17.351 65.9658L15.6652 65.9507L16.3798 63.6661C16.8579 62.1463 17.1296 61.3563 17.19 61.311C17.3209 61.2154 17.4316 61.2305 17.5473 61.3563Z" fill="#F24240"/>
<path d="M51.4191 57.8538C50.5888 58.0551 49.9547 58.6389 49.5219 59.6C49.2955 60.1083 45.783 70.6961 45.8031 70.8169L45.8182 70.9326L47.338 70.9477L48.8627 70.9578L48.8879 70.8219C48.908 70.7414 49.0338 70.3036 49.1747 69.8356L49.4314 68.9952H52.1337H54.8309L55.0926 69.8104C55.2385 70.2633 55.3694 70.7062 55.3845 70.7917L55.4197 70.9578H58.4239H61.4332L61.4684 70.7917C61.4835 70.7062 61.6144 70.2633 61.7553 69.8104L62.0119 68.9952H64.7142H67.4115L67.6983 69.9111C67.8594 70.4193 67.9852 70.8622 67.9852 70.8974C67.9852 70.9477 68.3022 70.9578 69.4848 70.9477L70.9794 70.9326L70.9944 70.8068C71.0095 70.676 67.4971 60.1485 67.2605 59.6202C66.6919 58.3319 65.7358 57.7029 64.4727 57.7884C63.4511 57.8538 62.7114 58.3722 62.2031 59.3887C62.0874 59.6151 61.2722 61.9803 60.2104 65.1657C59.2241 68.1347 58.4089 70.5552 58.3988 70.5451C58.3887 70.5351 57.5785 68.1297 56.5922 65.1959C55.3241 61.4066 54.7353 59.7208 54.5642 59.3836C54.2824 58.8251 53.7792 58.2715 53.3565 58.0551C52.818 57.7834 52.033 57.7029 51.4191 57.8538ZM52.34 61.3965C52.3903 61.467 52.7426 62.4936 53.1149 63.6761C53.4924 64.8637 53.8144 65.8652 53.8295 65.9054C53.8497 65.9658 53.6081 65.9759 52.1337 65.9759C50.5988 65.9759 50.4177 65.9658 50.4428 65.8953C50.4579 65.8551 50.7699 64.8738 51.1272 63.7214C51.4895 62.569 51.8116 61.5626 51.8418 61.4821C51.9424 61.2204 52.184 61.1801 52.34 61.3965ZM64.8652 61.3361C64.9457 61.4016 65.147 61.9702 65.6955 63.6862L66.4151 65.9507L64.7243 65.9658C63.7984 65.9708 63.0335 65.9708 63.0234 65.9608C63.0133 65.9557 63.2448 65.1908 63.5367 64.2649C63.8286 63.339 64.1456 62.3225 64.2412 62.0105C64.4727 61.2758 64.6086 61.1298 64.8652 61.3361Z" fill="#F24240"/>
<path d="M0.337144 58.1759C0.261661 58.2363 0.161017 58.3571 0.110694 58.4426C0.0301787 58.5936 0.0251465 59.0062 0.0251465 64.5165C0.0251465 70.0268 0.0301787 70.4394 0.110694 70.5904C0.161017 70.676 0.261661 70.7967 0.332112 70.8521C0.46295 70.9578 0.503208 70.9578 3.4219 70.9578C5.77195 70.9578 6.46136 70.9427 6.75827 70.8873C8.7158 70.5099 10.2305 68.7184 10.7539 66.152C10.8243 65.7846 10.8444 65.4676 10.8444 64.4914C10.8394 63.344 10.8344 63.2534 10.6985 62.6848C10.5274 61.945 10.3362 61.4267 10.0141 60.7977C9.35489 59.5245 8.40884 58.659 7.24639 58.2615L6.76833 58.1004L3.61816 58.0853C0.473015 58.0702 0.473015 58.0702 0.337144 58.1759ZM6.49156 61.7287C7.17594 61.93 7.70936 62.5338 8.01129 63.4346C8.11193 63.7416 8.12703 63.8825 8.12703 64.5417C8.122 65.2261 8.11193 65.3368 7.98613 65.6991C7.73452 66.459 7.22626 67.0427 6.6073 67.2893C6.32046 67.405 6.2802 67.405 4.55415 67.41H2.79287L2.77777 64.5266L2.76771 61.6481H4.49376C5.93298 61.6481 6.26511 61.6632 6.49156 61.7287Z" fill="#F24240"/>
<path d="M24.326 58.1709C24.014 58.3621 24.0291 58.0149 24.0291 64.7681V70.9326H25.3626H26.6962L26.7113 68.7033L26.7214 66.4791H29.0261C31.5624 66.4791 31.5422 66.4791 31.7737 66.7961C31.8744 66.932 31.8794 67.0226 31.9096 68.9348C31.9297 70.0318 31.9448 70.9376 31.9498 70.9427C31.9498 70.9527 32.5537 70.9578 33.2834 70.9578C34.2848 70.9578 34.6219 70.9427 34.6521 70.8923C34.6773 70.8622 34.6823 69.7853 34.6672 68.4668C34.6421 66.2375 34.632 66.0765 34.5314 65.6991C34.4106 65.2764 34.1841 64.8486 33.9577 64.6323L33.8218 64.5014L33.9627 64.3203C34.4106 63.7516 34.632 62.9515 34.637 61.8998C34.637 61.0493 34.5213 60.526 34.169 59.7963C33.7463 58.9408 33.0519 58.342 32.2518 58.1507C31.98 58.0904 31.351 58.0753 28.2059 58.0753C24.6531 58.0753 24.477 58.0803 24.326 58.1709ZM31.5774 61.6582C31.8894 61.9954 31.9347 62.5539 31.6831 62.9817C31.4567 63.3641 31.507 63.3591 28.9657 63.3591H26.7214V62.4382C26.7214 61.93 26.7364 61.4972 26.7566 61.477C26.7767 61.462 27.8284 61.4519 29.1016 61.4569L31.4114 61.472L31.5774 61.6582Z" fill="#F24240"/>
<path d="M35.5577 58.1809C35.4873 58.2363 35.3866 58.3571 35.3363 58.4426C35.2558 58.5936 35.2508 59.0012 35.2508 64.4662C35.2508 70.842 35.2407 70.5803 35.5326 70.832L35.6886 70.9578H39.5181C43.6747 70.9578 43.5892 70.9628 44.1729 70.676C44.5151 70.5099 45.0536 69.9815 45.285 69.584C45.4914 69.2317 45.7681 68.4366 45.8386 67.9887C45.9141 67.5308 45.904 66.8817 45.8184 66.3533C45.6977 65.5934 45.4763 65.065 45.1341 64.6926L44.9328 64.4763L45.119 64.2297C45.3505 63.9328 45.5467 63.5 45.6725 63.032C45.8134 62.5036 45.8034 61.1751 45.6524 60.6165C45.3052 59.3383 44.5 58.4225 43.4734 58.1507C43.247 58.0904 42.5425 58.0753 39.4477 58.0753C35.7137 58.0753 35.6936 58.0753 35.5577 58.1809ZM42.633 61.5626C43.096 61.8796 43.0759 62.876 42.6029 63.1628C42.4569 63.2534 42.316 63.2585 40.2226 63.2585H37.9933V62.3879C37.9933 61.9048 38.0084 61.4972 38.0286 61.477C38.0487 61.4569 39.0602 61.4519 40.283 61.4569C42.3311 61.472 42.5072 61.477 42.633 61.5626ZM42.6733 65.8752C43.0205 66.1218 43.1463 66.8464 42.9098 67.254C42.8494 67.3647 42.7337 67.5006 42.6582 67.556C42.5173 67.6566 42.4569 67.6616 40.2528 67.6767L37.9933 67.6918V66.7307V65.7746H40.2629C42.4519 65.7746 42.5374 65.7796 42.6733 65.8752Z" fill="#F24240"/>
<path d="M71.679 58.1709C71.3369 58.3773 71.3519 58.03 71.367 64.8185L71.3821 70.9327H72.7157H74.0492L74.0643 68.7034L74.0744 66.4791H76.3791C78.9506 66.4791 78.9254 66.4741 79.1318 66.8314C79.2274 66.9975 79.2324 67.1182 79.2626 68.9701C79.2777 70.047 79.2978 70.9377 79.2978 70.9478C79.3029 70.9528 79.9118 70.9528 80.6565 70.9478L82.0001 70.9327L81.9951 68.5927C81.9951 66.5899 81.985 66.1973 81.9096 65.8803C81.8089 65.4224 81.5925 64.9594 81.361 64.6927L81.1849 64.4965L81.3963 64.1845C81.8341 63.5454 82.0001 62.8157 81.9599 61.6985C81.9297 60.8632 81.8391 60.4606 81.5221 59.8114C81.0994 58.9409 80.3395 58.3018 79.5193 58.1307C79.3381 58.0955 78.0599 58.0753 75.5438 58.0753C71.981 58.0753 71.83 58.0804 71.679 58.1709ZM78.7544 61.5224C79.2576 61.779 79.3381 62.6345 78.9053 63.1176L78.7141 63.334L76.3942 63.3491L74.0744 63.3642V62.4383C74.0744 61.93 74.0895 61.4972 74.1096 61.4821C74.1247 61.462 75.1462 61.4469 76.3741 61.4469C78.2511 61.4469 78.6336 61.457 78.7544 61.5224Z" fill="#F24240"/>
<path d="M2.06321 73.1469C1.21277 73.3884 0.437804 74.259 0.18116 75.2604C0.0100645 75.9448 0 76.3574 0 84.404V92.3951H1.30838H2.61676V84.9022C2.61676 80.7808 2.63185 77.3739 2.64695 77.3287C2.66205 77.2834 2.70734 77.2481 2.73753 77.2481C2.77276 77.2481 3.40178 78.944 4.22707 81.2588C5.00706 83.468 5.70151 85.3903 5.76693 85.5262C5.94809 85.9187 6.20473 86.1803 6.58215 86.3665C6.88409 86.5175 6.95957 86.5326 7.34705 86.5326C7.69931 86.5326 7.82511 86.5074 8.05156 86.4018C8.39879 86.2407 8.67053 86.0042 8.83659 85.7224C8.90704 85.6067 9.61658 83.6693 10.4167 81.4199C11.2168 79.1705 11.8962 77.3085 11.9264 77.2783C11.9666 77.2381 11.9968 77.2431 12.027 77.2985C12.0572 77.3438 12.0773 79.1101 12.0773 81.7771C12.0773 85.1387 12.0924 86.2005 12.1377 86.2458C12.2233 86.3313 14.5482 86.3313 14.6337 86.2458C14.679 86.2005 14.6941 85.0179 14.6941 81.2236C14.6941 75.9448 14.684 75.7032 14.4475 75.0189C14.0198 73.786 12.9932 72.9959 11.9264 73.0865C11.0256 73.162 10.4368 73.6702 9.88832 74.8528C9.77258 75.1044 9.18381 76.7701 8.57995 78.5565C7.97608 80.343 7.45273 81.8375 7.41247 81.8778C7.36718 81.9281 7.33195 81.9331 7.29673 81.8979C7.26653 81.8677 6.72809 80.3279 6.09906 78.476C4.78565 74.6264 4.64474 74.2942 4.05094 73.6954C3.7792 73.4186 3.63327 73.3129 3.39675 73.2224C3.00424 73.0764 2.43057 73.0462 2.06321 73.1469Z" fill="#F24240"/>
<path d="M20.6525 73.1469C19.8171 73.328 19.1579 73.9269 18.7201 74.9031C18.4735 75.4516 14.9862 85.9942 15.0063 86.1401L15.0214 86.281L16.5361 86.2961L18.0558 86.3062L18.086 86.12C18.1062 86.0143 18.237 85.5614 18.3779 85.1085L18.6345 84.2933L21.3318 84.3033L24.0241 84.3184L24.321 85.2494C24.487 85.7627 24.6279 86.2105 24.638 86.2407C24.6531 86.2911 24.9852 86.3062 26.0822 86.3062C27.6724 86.3062 27.6674 86.3062 27.607 85.9891C27.5366 85.6268 23.9788 75.1346 23.8177 74.8075C23.5762 74.3345 23.2541 73.8816 22.9874 73.6652C22.3685 73.1569 21.4929 72.9607 20.6525 73.1469ZM21.4828 76.6292C21.5633 76.6996 21.7747 77.2985 22.3081 78.9843L23.0277 81.2488L21.3419 81.2639C20.416 81.2689 19.6561 81.2689 19.646 81.2588C19.636 81.2488 19.8624 80.499 20.1492 79.5831C20.4361 78.6723 20.7531 77.6608 20.8588 77.3337C21.0953 76.5789 21.2312 76.4229 21.4828 76.6292Z" fill="#F24240"/>
<path d="M28.301 73.469C27.9639 73.6753 27.979 73.318 27.979 80.0813C27.979 84.7613 27.9941 86.2005 28.0394 86.2458C28.1249 86.3313 30.5505 86.3313 30.636 86.2458C30.6813 86.2005 30.6964 85.6268 30.6964 83.9813V81.7772H32.976C35.0996 81.7772 35.2656 81.7872 35.4619 81.8728C35.8544 82.0539 35.8494 82.0388 35.8846 84.2933C35.8997 85.3853 35.9198 86.286 35.9198 86.2911C35.9249 86.3011 36.5136 86.3062 37.2332 86.3062C38.3202 86.3062 38.5467 86.2961 38.597 86.2307C38.6976 86.1099 38.6372 81.6161 38.5265 81.1481C38.4309 80.7305 38.2095 80.2675 37.978 79.9958L37.8069 79.7945L38.0183 79.4825C38.451 78.8484 38.6221 78.1087 38.5819 77.0217C38.5517 76.1713 38.4712 75.8391 38.134 75.1346C37.9176 74.6918 37.817 74.5458 37.4949 74.2238C37.2534 73.9772 36.9967 73.781 36.8005 73.6803C36.1865 73.3733 36.2167 73.3733 32.1557 73.3733C28.6181 73.3733 28.452 73.3784 28.301 73.469ZM35.3562 76.8254C35.8091 77.0418 35.95 77.852 35.6129 78.3401C35.3915 78.6672 35.4669 78.6572 32.9659 78.6572H30.6964V77.7363C30.6964 77.228 30.7115 76.7953 30.7316 76.7802C30.7467 76.76 31.7582 76.7449 32.976 76.7449C34.8983 76.7449 35.2053 76.755 35.3562 76.8254Z" fill="#F24240"/>
<path d="M38.8234 73.4388C38.8083 73.469 38.8033 74.2691 38.8083 75.2101L38.8234 76.9211L40.8766 76.9362L42.9247 76.9462V81.5658C42.9247 85.0934 42.9398 86.2005 42.9851 86.2458C43.0706 86.3313 45.4962 86.3313 45.5817 86.2458C45.627 86.2005 45.6421 85.0934 45.6421 81.5658V76.9462H47.6449C49.1345 76.9462 49.6629 76.9311 49.7081 76.8858C49.7534 76.8405 49.7685 76.3876 49.7685 75.1598C49.7685 73.9319 49.7534 73.479 49.7081 73.4337C49.6176 73.3431 38.8536 73.3482 38.8234 73.4388Z" fill="#F24240"/>
<path d="M61.3929 73.62C58.2427 73.6603 58.293 73.6553 58.1773 73.9119C58.137 73.9975 58.1219 75.3713 58.1219 78.3C58.1219 82.5221 58.1219 82.5724 58.2226 82.6982C58.3736 82.8894 58.6101 82.9347 59.5209 82.9347H60.3361V83.6543C60.3361 84.4544 60.3663 84.55 60.6683 84.6758C60.8746 84.7614 61.2369 84.7664 61.3476 84.6809C61.4432 84.6104 61.6042 84.2984 61.6948 84.0166C61.8659 83.4782 62.1981 83.0655 62.6409 82.8391C63.0737 82.6177 63.7782 82.6126 64.2009 82.829C64.6789 83.0756 65.1167 83.6291 65.2224 84.1324C65.3029 84.5148 65.3834 84.6306 65.6049 84.6909C65.7307 84.7262 66.9283 84.7463 68.9966 84.7463C72.7053 84.7463 72.338 84.8067 72.4185 84.1626C72.4789 83.6895 72.5846 83.4782 72.9117 83.1712C73.3243 82.7837 73.5407 82.7082 74.2502 82.7082C74.8491 82.7082 74.8591 82.7082 75.2466 82.8995C75.7146 83.131 75.8907 83.3373 76.0367 83.8606C76.2027 84.4343 76.2933 84.6457 76.3889 84.696C76.4443 84.7262 76.9676 84.7463 77.6269 84.7463H78.7692L78.739 84.2028C78.7239 83.9059 78.6736 83.5486 78.6283 83.4128C78.5628 83.2165 78.5377 82.8844 78.5226 81.9534C78.5075 81.2892 78.4723 80.64 78.4421 80.5092C78.3918 80.2626 77.0331 77.9427 76.6355 77.4143C76.2128 76.8507 75.7901 76.73 74.2251 76.7249C73.0677 76.7199 72.6148 76.7753 72.1317 76.9765C72.0411 77.0168 71.9555 77.047 71.9404 77.047C71.9304 77.047 71.9102 76.3978 71.8901 75.5977C71.8599 73.8767 71.8499 73.7911 71.6637 73.7559C71.0497 73.6251 66.1584 73.5647 61.3929 73.62ZM76.1222 78.1138C76.2933 78.2094 76.3738 78.3151 76.872 79.085C77.5111 80.0714 77.5161 80.0814 77.5363 80.957L77.5564 81.727H77.4356C77.184 81.727 76.3487 81.5609 75.8857 81.415C75.624 81.3344 75.0856 81.1784 74.6931 81.0728C73.8275 80.8363 73.591 80.7356 73.3595 80.5041C73.0677 80.2173 73.0173 79.9757 73.0173 78.9592C73.0173 78.4711 73.0324 78.0534 73.0526 78.0333C73.0727 78.0132 73.7369 78.0031 74.527 78.0132C75.775 78.0283 75.9813 78.0383 76.1222 78.1138Z" fill="#F24240"/>
<path d="M50.2319 79.9153C50.0608 79.9857 50.0407 80.1065 50.1715 80.2474L50.2873 80.3682H53.8803H57.4683V80.1971C57.4683 79.8498 57.6394 79.8649 53.7947 79.87C51.8422 79.87 50.2973 79.8901 50.2319 79.9153Z" fill="#F24240"/>
<path d="M51.5398 81.0073C51.3989 81.0324 51.2429 81.2589 51.3133 81.3293C51.424 81.44 52.6217 81.4853 54.9466 81.4652C57.2111 81.4451 57.3319 81.44 57.3973 81.3495C57.4879 81.2287 57.4879 81.1482 57.3872 81.0526C57.3168 80.9821 56.9897 80.972 54.4836 80.9771C52.9287 80.9821 51.6052 80.9972 51.5398 81.0073Z" fill="#F24240"/>
<path d="M52.5513 82.225C52.1739 82.2904 52.2041 82.4011 52.6318 82.5119C52.8281 82.5622 53.3816 82.5672 55.1731 82.5471L57.4678 82.5169V82.381C57.4678 82.2653 57.4426 82.2351 57.3118 82.2099C57.1004 82.1697 52.818 82.1848 52.5513 82.225Z" fill="#F24240"/>
<path d="M73.9888 83.0855C73.4101 83.2063 72.9371 83.5736 72.761 84.0316C72.5395 84.6254 72.7257 85.5161 73.1635 85.9539C73.4554 86.2457 73.7221 86.3263 74.2606 86.2961C74.7386 86.2659 75.1714 86.0696 75.5186 85.7224C76.0873 85.1487 76.1275 84.3939 75.6142 83.6994C75.4381 83.4629 75.3224 83.3673 75.0708 83.2415C74.7185 83.0704 74.326 83.015 73.9888 83.0855ZM74.6179 83.8957C75.0557 84.1121 75.2217 84.6153 75.0053 85.0934C74.8242 85.501 74.3361 85.6368 73.8832 85.4054C73.5712 85.2443 73.5057 85.1185 73.5259 84.6857C73.551 84.2731 73.6617 84.0567 73.9435 83.8856C74.1448 83.7598 74.3411 83.7648 74.6179 83.8957Z" fill="#F24240"/>
<path d="M74.0543 84.4392C73.9235 84.57 73.9134 84.6002 73.9587 84.7764L74.004 84.9726L74.2908 84.9877C74.6079 85.0028 74.633 84.9827 74.6481 84.6858C74.6531 84.555 74.6229 84.5046 74.482 84.409C74.2657 84.2631 74.2355 84.2681 74.0543 84.4392Z" fill="#F24240"/>
<path d="M62.762 83.1812C62.1632 83.4026 61.8361 83.8404 61.8059 84.4694C61.7706 85.0783 62.0223 85.647 62.4852 85.9992C63.0941 86.4723 63.9899 86.432 64.5283 85.9137C65.0567 85.4054 65.2177 84.4493 64.8856 83.8354C64.7346 83.5586 64.5786 83.4177 64.2113 83.2315C63.8892 83.0654 63.1444 83.0403 62.762 83.1812ZM63.8087 83.9461C64.1257 84.0115 64.171 84.0971 64.1811 84.5902C64.1861 85.0632 64.0704 85.3199 63.7835 85.4709C63.6175 85.5564 63.5672 85.5614 63.3659 85.5061C62.9029 85.3853 62.6312 85.0532 62.6312 84.6204C62.6362 84.0065 63.0337 83.78 63.8087 83.9461Z" fill="#F24240"/>
<path d="M63.2098 84.3838C63.1545 84.4845 63.1343 84.6505 63.1444 84.8468C63.1545 84.9474 63.1947 84.9927 63.3356 85.043C63.5017 85.1034 63.5268 85.0984 63.6325 84.9978C63.8137 84.8267 63.8388 84.6304 63.703 84.4492C63.5671 84.263 63.2903 84.2278 63.2098 84.3838Z" fill="#F24240"/>
<path d="M38.8639 87.3025C38.6324 87.4032 38.4462 87.5038 38.4462 87.524C38.4462 87.5441 38.5066 87.5793 38.5871 87.5944C38.8186 87.6548 39.2513 87.9618 39.7042 88.3895C39.9408 88.6159 40.2024 88.8474 40.2829 88.9078L40.4339 89.0185L39.2161 89.0236H37.9933V89.1997V89.3758H39.669C41.2743 89.3758 41.3548 89.3808 41.4404 89.4765C41.6618 89.723 41.3548 89.8639 40.4792 89.9042C39.6942 89.9445 39.357 89.9998 39.0148 90.1659C38.3657 90.4678 38.3204 90.9559 38.8941 91.3484L39.0148 91.434L38.7381 91.6856C38.5821 91.8265 38.4059 92.0479 38.3455 92.1737C38.2046 92.4857 38.1946 92.9487 38.3304 93.2557C38.4663 93.5526 38.8991 93.9501 39.3017 94.1464C39.8804 94.4282 40.1773 94.4835 41.1988 94.4835C41.702 94.4835 42.1247 94.4735 42.1348 94.4584C42.1499 94.4433 42.1751 94.3477 42.1952 94.2369L42.2355 94.0457L41.7071 94.0809C41.2793 94.1111 41.1233 94.1011 40.8818 94.0306C40.2679 93.8545 39.7546 93.4871 39.5382 93.0745C39.3922 92.7977 39.3922 92.2945 39.5382 92.0177C39.7294 91.6554 39.8351 91.595 40.4289 91.5095C41.0579 91.4139 41.2542 91.439 41.4857 91.6403C41.7071 91.8366 41.7876 92.0379 41.7574 92.3197C41.7121 92.7071 41.2995 93.0997 40.9371 93.0997C40.7711 93.0997 40.7761 93.2003 40.9573 93.3714C41.1032 93.5123 41.1233 93.5123 41.4907 93.4922C42.4518 93.4318 43.0909 92.7373 42.9198 91.9473C42.8444 91.585 42.6431 91.3384 42.2656 91.1371C41.853 90.9157 41.3649 90.8804 40.6855 91.0113C40.2377 91.1019 40.2175 91.1019 40.0263 91.0063C39.8653 90.9257 39.83 90.8855 39.83 90.7647C39.83 90.4879 40.137 90.4024 41.4907 90.2917C42.3663 90.2162 42.7739 89.9897 42.7739 89.5721V89.3808L43.0909 89.3657C43.4029 89.3506 43.4029 89.3506 43.418 89.1846L43.4331 89.0236H43.1815C42.9198 89.0236 42.8796 88.9934 42.9903 88.8776C43.0406 88.8273 43.0255 88.7971 42.9249 88.7317C42.7034 88.5908 42.3009 88.153 42.1499 87.8913C42.0694 87.7504 41.9033 87.5189 41.7826 87.373C41.5712 87.1264 41.546 87.1113 41.3246 87.1113C41.1384 87.1113 40.3786 87.2824 40.3182 87.3378C40.3081 87.3428 40.4792 87.529 40.6956 87.7504C40.912 87.9668 41.1284 88.2184 41.1837 88.314L41.2743 88.4801L41.1535 88.3996C41.0831 88.3543 40.8717 88.1429 40.6805 87.9316C40.4943 87.7202 40.2024 87.4485 40.0414 87.3277C39.6539 87.0459 39.4476 87.0409 38.8639 87.3025Z" fill="#F24240"/>
<path d="M42.7387 87.1967C42.6733 87.2068 42.5777 87.2773 42.5173 87.3527C42.4317 87.4634 42.4166 87.5389 42.4368 87.7302C42.4619 88.0271 42.5072 88.0723 42.784 88.1025C43.0658 88.1327 43.3677 88.0271 43.4986 87.8509C43.5942 87.7201 43.5942 87.7 43.5288 87.5037C43.4231 87.2018 43.1866 87.1112 42.7387 87.1967Z" fill="#F24240"/>
<path d="M50.941 88.0372C50.5384 88.2184 50.468 88.7317 50.7196 89.6324C50.8957 90.2615 51.0064 90.7949 51.0517 91.2478L51.0869 91.59H51.258C51.3536 91.59 51.4291 91.5749 51.4291 91.5497C51.4291 91.2729 51.5801 90.498 51.7562 89.8488C51.882 89.3959 51.9827 88.9279 51.9827 88.792C51.9827 88.5052 51.8619 88.2435 51.6757 88.1026C51.4996 87.9768 51.1473 87.9466 50.941 88.0372Z" fill="#F24240"/>
<path d="M10.9451 88.6462C10.92 88.6563 10.769 88.6915 10.608 88.7217C10.3714 88.767 10.3211 88.7972 10.296 88.9029L10.2658 89.0237H7.47288H4.67999V89.1998V89.3759H6.23495C7.53327 89.3759 7.79997 89.386 7.8503 89.4514C8.03649 89.6728 7.70436 89.8741 7.14578 89.8791C6.1645 89.8842 5.4147 90.2565 5.07251 90.8956C4.90141 91.2227 4.90644 91.7863 5.09264 92.0983C5.43483 92.6821 6.09908 92.9991 6.96966 92.9991H7.37727L7.62385 93.3816C7.93081 93.8546 8.23778 94.1062 8.50448 94.1062C8.67558 94.1062 8.71584 94.076 8.90203 93.8294C9.15364 93.4973 9.1939 93.4067 9.10332 93.3816C8.65545 93.2507 8.25287 93.0041 8.25287 92.8632C8.25287 92.833 8.33842 92.7878 8.4441 92.7576C8.94732 92.6066 9.32977 92.1235 9.3348 91.6354C9.3348 91.3234 9.23416 91.1523 8.94732 91.0064C8.78629 90.9258 8.30823 90.9158 8.03649 90.9913C7.60372 91.112 7.29675 91.5851 7.28165 92.1638L7.27159 92.4808L7.08036 92.4355C6.34063 92.2694 5.9934 91.6152 6.34063 91.0516C6.56205 90.6793 7.27159 90.332 7.79494 90.332C8.64035 90.332 9.23919 90.0049 9.19893 89.5671L9.1788 89.3759H9.67196H10.1651L10.1299 89.6627C10.1047 89.8238 10.0896 90.5182 10.0947 91.2127C10.0997 92.2795 10.1148 92.5261 10.1953 92.823C10.2859 93.1601 10.296 93.1752 10.457 93.1903C10.5828 93.2054 10.7237 93.1501 11.0206 92.974C11.242 92.8431 11.4332 92.7223 11.4433 92.7022C11.4584 92.6821 11.4232 92.516 11.3729 92.3349C11.1816 91.6505 11.1263 90.6944 11.2269 89.9446C11.3074 89.3256 11.247 89.3759 11.9063 89.3759H12.485L12.7416 89.6124C13.0184 89.8741 13.2851 90.2515 13.2851 90.3874C13.2851 90.4377 13.1945 90.5082 13.0335 90.5736C12.7014 90.7094 12.3038 91.0869 12.1981 91.3687C12.0472 91.7712 12.1579 92.1587 12.495 92.4154C12.646 92.5261 13.1492 92.5814 13.4612 92.5261C13.8386 92.4556 14.2966 91.8316 14.367 91.2982C14.4375 90.7698 14.4224 90.7799 14.7998 90.9409L15.0464 91.0466V91.4643C15.0464 91.9021 15.147 92.5563 15.2779 92.9589C15.3533 93.1853 15.3684 93.2004 15.5244 93.2004C15.6402 93.2004 15.8364 93.1199 16.1233 92.9488L16.551 92.6972L16.4554 92.4758C16.4 92.355 16.3346 92.1034 16.3044 91.9122C16.239 91.4442 16.2491 89.9647 16.3195 89.6527L16.3799 89.4011L16.7473 89.386L17.1096 89.3709V89.1998V89.0237H16.8026H16.4957L16.5309 88.8173L16.5661 88.606L16.2491 88.6362C15.6855 88.6815 15.4188 88.762 15.3584 88.9029C15.298 89.0237 15.298 89.0237 14.5029 89.0237H13.7078L13.5115 88.8224C13.3505 88.6563 13.2801 88.6211 13.1241 88.6211C12.9882 88.6211 12.8473 88.6764 12.6259 88.8224C12.3189 89.0186 12.3038 89.0237 11.861 89.0237C11.4735 89.0237 11.4181 89.0136 11.4433 88.9431C11.5641 88.6362 11.554 88.6211 11.2672 88.6261C11.1162 88.6261 10.9753 88.6362 10.9451 88.6462ZM15.2477 89.4111C15.2426 89.4363 15.2124 89.5873 15.1722 89.7533C15.1319 89.9194 15.0967 90.1408 15.0967 90.2515C15.0967 90.4427 15.0917 90.4427 14.9407 90.4125C14.8552 90.3975 14.6992 90.3824 14.5935 90.3824C14.4174 90.3824 14.4023 90.3723 14.3419 90.166C14.3066 90.0502 14.2211 89.8389 14.1456 89.703C14.0752 89.5621 14.0097 89.4363 13.9997 89.4111C13.9896 89.391 14.2664 89.3759 14.6136 89.3759C14.9608 89.3759 15.2477 89.391 15.2477 89.4111ZM13.3606 91.3989C13.3103 91.7058 13.1492 92.0581 13.0788 92.0128C12.9932 91.9625 13.0637 91.5599 13.1895 91.3586C13.3354 91.1221 13.4008 91.1422 13.3606 91.3989ZM8.43403 91.5146C8.48436 91.7109 8.42397 91.8618 8.21765 92.0631C8.04655 92.2241 8.02642 92.2392 8.01133 92.1487C7.9761 91.9222 8.21765 91.3888 8.35855 91.3888C8.38371 91.3888 8.4139 91.4442 8.43403 91.5146Z" fill="#F24240"/>
<path d="M25.5988 88.7067C25.317 88.7721 25.2566 88.8073 25.2314 88.9029L25.2012 89.0237H23.1179H21.0345V89.1998V89.3759H23.0424C24.1495 89.3759 25.0654 89.391 25.0754 89.4112C25.0855 89.4363 25.0754 89.547 25.0503 89.6678C25.01 89.8439 24.9848 89.8792 24.9194 89.849C24.5168 89.6779 23.8425 89.6276 23.3393 89.7332C22.8864 89.8238 22.2775 90.1509 21.9102 90.4981C21.1402 91.2177 21.0446 91.7763 21.6032 92.3198C21.9252 92.6318 22.1265 92.6972 22.7606 92.6972C23.5003 92.6972 24.0841 92.4708 24.7131 91.9424L24.9496 91.7461L24.9798 92.0833C24.9999 92.2695 25.0603 92.5613 25.1157 92.7324L25.2214 93.0495H25.4377C25.6189 93.0495 26.2731 92.8633 26.3435 92.7878C26.3586 92.7777 26.3234 92.6519 26.2681 92.506C26.1674 92.2443 26.0668 91.5599 26.0668 91.1272C26.0668 90.9108 26.0869 90.8806 26.3083 90.6843C26.575 90.4428 26.8669 90.2817 27.0229 90.2817C27.5362 90.2817 27.7979 91.0014 27.506 91.6153C27.3349 91.9877 26.8166 92.3903 26.5096 92.3953C26.3687 92.3953 26.3989 92.4808 26.6555 92.8281C26.877 93.13 26.9072 93.1501 27.0883 93.1501C27.4959 93.1501 28.2357 92.6419 28.5175 92.1588C28.6936 91.8619 28.8345 91.3788 28.8345 91.097C28.8295 90.6189 28.4873 90.1811 27.9438 89.9798C27.5311 89.8238 26.7361 89.8389 26.3838 90.005L26.1171 90.1257V90.005C26.1171 89.9396 26.1423 89.7685 26.1724 89.6276L26.2278 89.3759H27.9035H29.5793L29.8359 89.6074C30.0825 89.8288 30.2989 90.1358 30.3643 90.3623C30.3895 90.4528 30.3643 90.483 30.168 90.5535C29.6145 90.7648 29.2371 91.2379 29.2371 91.7109C29.2371 92.2594 29.5642 92.5463 30.1882 92.5463C30.3844 92.5463 30.6209 92.5161 30.7115 92.4758C31.0537 92.3349 31.4261 91.6958 31.4814 91.1473C31.5217 90.785 31.5569 90.7699 31.9042 90.946L32.1306 91.0617L32.1608 91.6656C32.196 92.2896 32.2514 92.6167 32.3872 92.9841C32.4577 93.1753 32.4829 93.2004 32.6238 93.2004C32.7949 93.2004 33.6151 92.7576 33.6151 92.667C33.6151 92.6318 33.5849 92.5463 33.5447 92.4708C33.3484 92.0984 33.2629 90.3371 33.4088 89.6879L33.4792 89.3759H33.8214H34.1687V89.1998V89.0237H33.8617C33.6 89.0237 33.5598 89.0136 33.5849 88.9432C33.6 88.8979 33.6302 88.8073 33.6453 88.7369L33.6805 88.606L33.3585 88.6362C32.7848 88.6865 32.508 88.767 32.4577 88.9029C32.4124 89.0237 32.4074 89.0237 31.6123 89.0237H30.8172L30.6209 88.8224C30.3492 88.5456 30.1328 88.5456 29.7151 88.8224L29.4132 89.0237H27.8582C26.4593 89.0237 26.3083 89.0136 26.3385 88.9432C26.3536 88.8979 26.3838 88.8073 26.3989 88.7419C26.4291 88.6261 26.419 88.6211 26.1875 88.6261C26.0517 88.6312 25.79 88.6664 25.5988 88.7067ZM32.3319 89.4615C32.3017 89.547 32.2413 89.8439 32.1809 90.2465C32.1507 90.4176 32.1356 90.4377 32.04 90.4126C31.9796 90.3975 31.8337 90.3824 31.718 90.3824C31.5167 90.3824 31.5016 90.3723 31.4513 90.1912C31.4261 90.0905 31.3254 89.8641 31.2298 89.6879L31.0587 89.3759H31.7129C32.3168 89.3759 32.3671 89.381 32.3319 89.4615ZM23.9885 90.3925C24.079 90.478 24.1545 90.5837 24.1545 90.6189C24.1545 90.7397 24.5621 90.6994 24.7735 90.5585L24.9597 90.4277V90.6692C24.9597 90.8957 24.9396 90.9309 24.698 91.1725C24.1898 91.6656 23.5557 91.9776 23.1833 91.9223C22.7455 91.8518 22.4436 91.5851 22.4436 91.2681C22.4436 90.9259 22.7354 90.5485 23.1632 90.3321C23.5456 90.1408 23.7419 90.1509 23.9885 90.3925ZM30.4297 91.4593C30.3794 91.9776 30.1127 92.2795 30.1529 91.7763C30.1731 91.5348 30.3391 91.1875 30.4297 91.1875C30.4448 91.1875 30.4448 91.3083 30.4297 91.4593Z" fill="#F24240"/>
<path d="M44.2836 92.0781C44.0572 92.1637 43.8307 92.4958 43.8307 92.7474C43.8307 93.1802 44.1377 93.472 44.5554 93.4368C45.0586 93.3915 45.3052 92.8682 45.0586 92.3851C44.9227 92.1234 44.5554 91.9775 44.2836 92.0781Z" fill="#F24240"/>
<path d="M45.8938 92.1283C45.456 92.3548 45.3604 92.8932 45.7026 93.2354C45.8888 93.4166 46.1656 93.4971 46.4172 93.4317C46.6235 93.3814 46.8449 93.16 46.9053 92.9385C47.0613 92.3598 46.4273 91.8516 45.8938 92.1283Z" fill="#F24240"/>
<path d="M48.4099 92.1385C48.1834 92.2593 48.0425 92.5008 48.0425 92.7726C48.0425 93.1953 48.3596 93.472 48.8024 93.4368C49.0289 93.4217 49.0993 93.3915 49.2503 93.2405C49.5975 92.8933 49.5069 92.3549 49.0641 92.1335C48.8376 92.0177 48.6263 92.0177 48.4099 92.1385Z" fill="#F24240"/>
<path d="M50.9311 92.1284C50.6946 92.2442 50.5738 92.4656 50.5738 92.7776C50.5738 93.1902 50.8506 93.4519 51.2884 93.4519C52.0281 93.4519 52.2445 92.4656 51.5802 92.1335C51.3588 92.0228 51.1525 92.0228 50.9311 92.1284Z" fill="#F24240"/>
</svg>
