<svg width="33" height="32" viewBox="0 0 33 32" fill="none" xmlns="http://www.w3.org/2000/svg">
<path fill-rule="evenodd" clip-rule="evenodd" d="M8.29688 5.40494L10.0059 2.31035C10.1246 2.12318 10.2982 2.00315 10.5625 2H22.4375C22.6666 2.00019 22.8903 2.12492 22.9941 2.31035L24.7031 5.40494H25.875C26.2022 5.40497 26.5 5.67531 26.5 5.97243V9.37738C26.5 9.67451 26.2022 9.94484 25.875 9.94487H24.8887L23.375 29.4768C23.3506 29.7589 23.0616 30 22.75 30H10.25C9.93841 30.0008 9.64937 29.7589 9.625 29.4768L8.11131 9.94487H7.125C6.79775 9.94484 6.50003 9.67451 6.5 9.37738V5.97243C6.50003 5.67531 6.79775 5.40497 7.125 5.40494H8.29688ZM22.0566 3.13501H10.9434L9.69336 5.40497H23.3066L22.0566 3.13501ZM7.75 6.54004H25.25V8.81H7.75V6.54004ZM23.6289 9.94482H9.37109L9.83984 16.0624H12.5742C13.4074 14.8783 14.8427 14.0762 16.5 14.0762C18.1573 14.0762 19.5926 14.8783 20.4258 16.0624H23.1602L23.6289 9.94482ZM16.5 15.2112C17.8296 15.2112 18.9733 15.8898 19.5469 16.887C19.6507 17.0725 19.8744 17.1972 20.1035 17.1974H23.0625L22.8477 19.4674H20.1035C19.8764 19.4674 19.6533 19.5867 19.5469 19.7688C18.9733 20.7661 17.8296 21.4536 16.5 21.4536C15.1704 21.4536 14.0267 20.7661 13.4531 19.7688C13.3467 19.5867 13.1236 19.4659 12.8965 19.4674H10.1523L9.9375 17.1974H12.8965C13.1256 17.1972 13.3493 17.0725 13.4531 16.887C14.0267 15.8898 15.1704 15.2112 16.5 15.2112ZM12.584 20.6023H10.25L10.8262 28.865H22.1738L22.75 20.6023H20.416C19.5816 21.7805 18.1525 22.5885 16.5 22.5885C14.8475 22.5885 13.4184 21.7805 12.584 20.6023Z" fill="#828487"/>
</svg>
